<?xml version="1.0" encoding="UTF-8" standalone="no"?>
<!DOCTYPE svg PUBLIC "-//W3C//DTD SVG 1.1//EN" "http://www.w3.org/Graphics/SVG/1.1/DTD/svg11.dtd">
<svg width="100%" height="100%" viewBox="0 0 25 25" version="1.1" xmlns="http://www.w3.org/2000/svg" xmlns:xlink="http://www.w3.org/1999/xlink" xml:space="preserve" xmlns:serif="http://www.serif.com/" style="fill-rule:evenodd;clip-rule:evenodd;stroke-linejoin:round;stroke-miterlimit:2;">
    <g transform="matrix(0.967742,0,0,0.967742,-0.564555,0.420954)">
        <path d="M19.958,24.125C19.248,24.125 18.64,23.872 18.133,23.366C17.627,22.859 17.374,22.251 17.375,21.542L17.375,20.25L14.792,20.25C14.081,20.25 13.473,19.997 12.967,19.491C12.46,18.984 12.208,18.376 12.208,17.667L12.208,7.333L9.625,7.333L9.625,8.625C9.625,9.335 9.372,9.944 8.866,10.45C8.359,10.957 7.751,11.209 7.042,11.208L3.167,11.208C2.456,11.208 1.848,10.955 1.342,10.449C0.835,9.943 0.583,9.335 0.583,8.625L0.583,3.458C0.583,2.748 0.837,2.14 1.343,1.633C1.849,1.127 2.457,0.874 3.167,0.875L7.042,0.875C7.752,0.875 8.361,1.128 8.867,1.635C9.373,2.141 9.626,2.749 9.625,3.458L9.625,4.75L17.375,4.75L17.375,3.458C17.375,2.748 17.628,2.14 18.135,1.633C18.641,1.127 19.249,0.874 19.958,0.875L23.833,0.875C24.544,0.875 25.152,1.128 25.659,1.635C26.165,2.141 26.418,2.749 26.417,3.458L26.417,8.625C26.417,9.335 26.164,9.944 25.657,10.45C25.151,10.957 24.543,11.209 23.833,11.208L19.958,11.208C19.248,11.208 18.64,10.955 18.133,10.449C17.627,9.943 17.374,9.335 17.375,8.625L17.375,7.333L14.792,7.333L14.792,17.667L17.375,17.667L17.375,16.375C17.375,15.665 17.628,15.056 18.135,14.55C18.641,14.044 19.249,13.791 19.958,13.792L23.833,13.792C24.544,13.792 25.152,14.045 25.659,14.551C26.165,15.057 26.418,15.665 26.417,16.375L26.417,21.542C26.417,22.252 26.164,22.86 25.657,23.367C25.151,23.873 24.543,24.126 23.833,24.125L19.958,24.125ZM19.958,8.625L23.833,8.625L23.833,3.458L19.958,3.458L19.958,8.625ZM19.958,21.542L23.833,21.542L23.833,16.375L19.958,16.375L19.958,21.542ZM3.167,8.625L7.042,8.625L7.042,3.458L3.167,3.458L3.167,8.625Z" style="fill:rgb(41,24,0);fill-rule:nonzero;"/>
    </g>
</svg>
