<?xml version="1.0" encoding="UTF-8" standalone="no"?>
<!DOCTYPE svg PUBLIC "-//W3C//DTD SVG 1.1//EN" "http://www.w3.org/Graphics/SVG/1.1/DTD/svg11.dtd">
<svg width="100%" height="100%" viewBox="0 0 25 25" version="1.1" xmlns="http://www.w3.org/2000/svg" xmlns:xlink="http://www.w3.org/1999/xlink" xml:space="preserve" xmlns:serif="http://www.serif.com/" style="fill-rule:evenodd;clip-rule:evenodd;stroke-linejoin:round;stroke-miterlimit:2;">
    <g transform="matrix(1.0659,0,0,1.0659,4.59899,0.243006)">
        <path d="M9.238,1.461C10.201,0.498 11.303,0.282 12.544,0.813C13.785,1.344 14.406,2.295 14.408,3.666L14.408,19.331C14.408,20.7 13.787,21.651 12.544,22.184C11.301,22.717 10.199,22.501 9.238,21.536L1.329,13.628C1.025,13.324 0.797,12.994 0.645,12.639C0.493,12.284 0.417,11.904 0.417,11.499C0.417,11.093 0.493,10.713 0.645,10.358C0.797,10.003 1.025,9.674 1.329,9.369L9.238,1.461Z" style="fill:rgb(41,24,0);fill-rule:nonzero;"/>
    </g>
</svg>
