<?xml version="1.0" encoding="UTF-8" standalone="no"?>
<!DOCTYPE svg PUBLIC "-//W3C//DTD SVG 1.1//EN" "http://www.w3.org/Graphics/SVG/1.1/DTD/svg11.dtd">
<svg width="100%" height="100%" viewBox="0 0 25 25" version="1.1" xmlns="http://www.w3.org/2000/svg" xmlns:xlink="http://www.w3.org/1999/xlink" xml:space="preserve" xmlns:serif="http://www.serif.com/" style="fill-rule:evenodd;clip-rule:evenodd;stroke-linejoin:round;stroke-miterlimit:2;">
    <g transform="matrix(0.878644,0,0,0.878644,0.638299,0.198979)">
        <path d="M3.375,24.8L8.438,24.8L8.438,15.2L18.563,15.2L18.563,24.8L23.625,24.8L23.625,10.4L13.5,3.2L3.375,10.4L3.375,24.8ZM3.375,28C2.447,28 1.652,27.686 0.991,27.059C0.329,26.432 -0.001,25.679 0,24.8L0,10.4C0,9.893 0.12,9.413 0.359,8.96C0.599,8.507 0.929,8.133 1.35,7.84L11.475,0.64C11.784,0.427 12.108,0.267 12.445,0.16C12.783,0.053 13.134,0 13.5,0C13.866,0 14.217,0.053 14.555,0.16C14.892,0.267 15.216,0.427 15.525,0.64L25.65,7.84C26.072,8.133 26.403,8.507 26.642,8.96C26.882,9.413 27.001,9.893 27,10.4L27,24.8C27,25.68 26.669,26.434 26.008,27.061C25.346,27.688 24.552,28.001 23.625,28L15.188,28L15.188,18.4L11.813,18.4L11.813,28L3.375,28Z" style="fill:rgb(41,24,0);fill-rule:nonzero;"/>
    </g>
</svg>
