<?xml version="1.0" encoding="UTF-8" standalone="no"?>
<!DOCTYPE svg PUBLIC "-//W3C//DTD SVG 1.1//EN" "http://www.w3.org/Graphics/SVG/1.1/DTD/svg11.dtd">
<svg width="100%" height="100%" viewBox="0 0 25 25" version="1.1" xmlns="http://www.w3.org/2000/svg" xmlns:xlink="http://www.w3.org/1999/xlink" xml:space="preserve" xmlns:serif="http://www.serif.com/" style="fill-rule:evenodd;clip-rule:evenodd;stroke-linejoin:round;stroke-miterlimit:2;">
    <g transform="matrix(0.9375,0,0,0.9375,-0.624962,-0.607231)">
        <path d="M15.333,14.233L18.333,17.233C18.578,17.478 18.7,17.784 18.7,18.151C18.7,18.518 18.578,18.834 18.333,19.1C18.067,19.367 17.75,19.5 17.383,19.5C17.016,19.5 16.699,19.367 16.433,19.1L13.6,16.267C13.289,15.956 13.056,15.611 12.9,15.233C12.744,14.855 12.667,14.444 12.667,14L12.667,10C12.667,9.622 12.795,9.305 13.051,9.049C13.307,8.793 13.623,8.666 14,8.667C14.378,8.667 14.695,8.795 14.951,9.051C15.207,9.307 15.334,9.623 15.333,10L15.333,14.233ZM14,3.333C14.378,3.333 14.695,3.461 14.951,3.717C15.207,3.973 15.334,4.29 15.333,4.667C15.333,5.044 15.205,5.361 14.949,5.617C14.693,5.873 14.377,6.001 14,6C13.622,6 13.305,5.872 13.049,5.616C12.793,5.36 12.666,5.044 12.667,4.667C12.667,4.289 12.795,3.972 13.051,3.716C13.307,3.46 13.623,3.332 14,3.333ZM24.667,14C24.667,14.378 24.539,14.695 24.283,14.951C24.027,15.207 23.71,15.334 23.333,15.333C22.956,15.333 22.639,15.205 22.383,14.949C22.127,14.693 21.999,14.377 22,14C22,13.622 22.128,13.305 22.384,13.049C22.64,12.793 22.956,12.666 23.333,12.667C23.711,12.667 24.028,12.795 24.284,13.051C24.54,13.307 24.668,13.623 24.667,14ZM14,22C14.378,22 14.695,22.128 14.951,22.384C15.207,22.64 15.334,22.956 15.333,23.333C15.333,23.711 15.205,24.028 14.949,24.284C14.693,24.54 14.377,24.668 14,24.667C13.622,24.667 13.305,24.539 13.049,24.283C12.793,24.027 12.666,23.71 12.667,23.333C12.667,22.956 12.795,22.639 13.051,22.383C13.307,22.127 13.623,21.999 14,22ZM6,14C6,14.378 5.872,14.695 5.616,14.951C5.36,15.207 5.044,15.334 4.667,15.333C4.289,15.333 3.972,15.205 3.716,14.949C3.46,14.693 3.332,14.377 3.333,14C3.333,13.622 3.461,13.305 3.717,13.049C3.973,12.793 4.29,12.666 4.667,12.667C5.044,12.667 5.361,12.795 5.617,13.051C5.873,13.307 6.001,13.623 6,14ZM14,27.333C12.156,27.333 10.422,26.983 8.8,26.283C7.178,25.582 5.767,24.632 4.567,23.433C3.367,22.233 2.417,20.822 1.717,19.2C1.018,17.578 0.668,15.844 0.667,14C0.667,12.156 1.017,10.422 1.717,8.8C2.418,7.178 3.368,5.767 4.567,4.567C5.767,3.367 7.178,2.417 8.8,1.717C10.422,1.018 12.156,0.668 14,0.667C15.844,0.667 17.578,1.017 19.2,1.717C20.822,2.418 22.233,3.368 23.433,4.567C24.633,5.767 25.584,7.178 26.284,8.8C26.984,10.422 27.334,12.156 27.333,14C27.333,15.844 26.983,17.578 26.283,19.2C25.582,20.822 24.632,22.233 23.433,23.433C22.233,24.633 20.822,25.584 19.2,26.284C17.578,26.984 15.844,27.334 14,27.333ZM14,24.667C16.978,24.667 19.5,23.633 21.567,21.567C23.633,19.5 24.667,16.978 24.667,14C24.667,11.022 23.633,8.5 21.567,6.433C19.5,4.367 16.978,3.333 14,3.333C11.022,3.333 8.5,4.367 6.433,6.433C4.367,8.5 3.333,11.022 3.333,14C3.333,16.978 4.367,19.5 6.433,21.567C8.5,23.633 11.022,24.667 14,24.667Z" style="fill:rgb(41,24,0);fill-rule:nonzero;"/>
    </g>
</svg>
